<mxfile host="app.diagrams.net" modified="2023-09-28T17:47:39.469Z" agent="Mozilla/5.0 (X11; Linux x86_64; rv:109.0) Gecko/20100101 Firefox/114.0" version="22.0.0" etag="HnTNFge8k8vJv1Z3KEUY" type="github">
  <diagram name="Page-1" id="WeSeN47VbSNQnaow_Mwx">
    <mxGraphModel>
      <root>
        <mxCell id="0" />
        <mxCell id="1" parent="0" />
      </root>
    </mxGraphModel>
  </diagram>
</mxfile>
